<?xml version="1.0" encoding="UTF-8" standalone="no"?>
<!-- Created with Inkscape (http://www.inkscape.org/) -->

<svg
   xmlns:dc="http://purl.org/dc/elements/1.1/"
   xmlns:cc="http://creativecommons.org/ns#"
   xmlns:rdf="http://www.w3.org/1999/02/22-rdf-syntax-ns#"
   xmlns:svg="http://www.w3.org/2000/svg"
   xmlns="http://www.w3.org/2000/svg"
   xmlns:xlink="http://www.w3.org/1999/xlink"
   xmlns:sodipodi="http://sodipodi.sourceforge.net/DTD/sodipodi-0.dtd"
   xmlns:inkscape="http://www.inkscape.org/namespaces/inkscape"
   id="svg955"
   version="1.1"
   viewBox="0 0 507.99999 285.75001"
   height="1080"
   width="1920"
   inkscape:version="0.92.4 5da689c313, 2019-01-14"
   sodipodi:docname="Hintergrund Meer.svg">
  <sodipodi:namedview
     inkscape:bbox-nodes="true"
     inkscape:snap-bbox-midpoints="true"
     inkscape:snap-smooth-nodes="true"
     inkscape:snap-page="true"
     inkscape:snap-bbox="true"
     units="px"
     showgrid="false"
     inkscape:current-layer="layer1"
     inkscape:document-units="mm"
     inkscape:cy="523.61484"
     inkscape:cx="746.52123"
     inkscape:zoom="0.7"
     inkscape:pageshadow="2"
     inkscape:pageopacity="1"
     borderopacity="1.0"
     bordercolor="#666666"
     pagecolor="#1f1f1f"
     id="base"
     inkscape:snap-global="false"
     inkscape:window-width="1920"
     inkscape:window-height="1006"
     inkscape:window-x="0"
     inkscape:window-y="0"
     inkscape:window-maximized="1" />
  <defs
     id="defs949">
    <linearGradient
       inkscape:collect="always"
       id="linearGradient4575">
      <stop
         style="stop-color:#ffffff;stop-opacity:0.36401674"
         offset="0"
         id="stop4571" />
      <stop
         style="stop-color:#47de9f;stop-opacity:1"
         offset="1"
         id="stop4573" />
    </linearGradient>
    <inkscape:path-effect
       is_visible="true"
       id="path-effect1790"
       effect="spiro" />
    <inkscape:path-effect
       is_visible="true"
       id="path-effect1786"
       effect="spiro" />
    <inkscape:path-effect
       is_visible="true"
       id="path-effect1782"
       effect="spiro" />
    <meshgradient
       y="11.249983"
       x="0"
       gradientUnits="userSpaceOnUse"
       id="meshgradient1502"
       inkscape:collect="always">
      <meshrow
         id="meshrow1768">
        <meshpatch
           id="meshpatch1770">
          <stop
             id="stop1772"
             style="stop-color:#d6f48a;stop-opacity:1"
             path="c 223.322,1.66138e-07  393.725,1.66138e-07  508,0" />
          <stop
             id="stop1774"
             style="stop-color:#69c9d3;stop-opacity:1"
             path="c -1.13687e-13,81.352  -1.13687e-13,150.41  0,285.75" />
          <stop
             id="stop1776"
             style="stop-color:#1b2896;stop-opacity:1"
             path="c -141.537,1.66138e-07  -265.435,1.66138e-07  -508,5.68434e-14" />
          <stop
             id="stop1778"
             style="stop-color:#000557;stop-opacity:1"
             path="c 0,-89.9046  0,-130.097  0,-285.75" />
        </meshpatch>
      </meshrow>
    </meshgradient>
    <linearGradient
       inkscape:collect="always"
       xlink:href="#linearGradient4575"
       id="linearGradient4577"
       x1="2020.6517"
       y1="383.59024"
       x2="-1.285349"
       y2="784.72607"
       gradientUnits="userSpaceOnUse"
       gradientTransform="matrix(0.28404147,-0.02631748,0.03493214,0.37701849,-32.510191,3.0878745)" />
  </defs>
  <metadata
     id="metadata952">
    <rdf:RDF>
      <cc:Work
         rdf:about="">
        <dc:format>image/svg+xml</dc:format>
        <dc:type
           rdf:resource="http://purl.org/dc/dcmitype/StillImage" />
        <dc:title></dc:title>
      </cc:Work>
    </rdf:RDF>
  </metadata>
  <g
     transform="translate(0,-11.249983)"
     id="layer1"
     inkscape:groupmode="layer"
     inkscape:label="Ebene 1">
    <rect
       y="11.249983"
       x="0"
       height="285.75"
       width="508"
       id="rect1500"
       style="opacity:1;fill:url(#meshgradient1502);fill-opacity:1;stroke:none;stroke-width:0.26458332;stroke-opacity:1" />
    <path
       style="color:#000000;font-style:normal;font-variant:normal;font-weight:normal;font-stretch:normal;font-size:medium;line-height:normal;font-family:sans-serif;font-variant-ligatures:normal;font-variant-position:normal;font-variant-caps:normal;font-variant-numeric:normal;font-variant-alternates:normal;font-feature-settings:normal;text-indent:0;text-align:start;text-decoration:none;text-decoration-line:none;text-decoration-style:solid;text-decoration-color:#000000;letter-spacing:normal;word-spacing:normal;text-transform:none;writing-mode:lr-tb;direction:ltr;text-orientation:mixed;dominant-baseline:auto;baseline-shift:baseline;text-anchor:start;white-space:normal;shape-padding:0;clip-rule:nonzero;display:inline;overflow:visible;visibility:visible;opacity:1;isolation:auto;mix-blend-mode:normal;color-interpolation:sRGB;color-interpolation-filters:linearRGB;solid-color:#000000;solid-opacity:1;vector-effect:none;fill:none;fill-opacity:1;fill-rule:nonzero;stroke:url(#linearGradient4577);stroke-width:0.48300001;stroke-linecap:round;stroke-linejoin:round;stroke-miterlimit:4;stroke-dasharray:none;stroke-dashoffset:0;stroke-opacity:1;paint-order:markers fill stroke;color-rendering:auto;image-rendering:auto;shape-rendering:auto;text-rendering:auto;enable-background:accumulate"
       d="m 528.38645,94.823233 c -9.84883,29.405707 -23.52832,56.189787 -40.09657,79.116257 -2.53166,3.18024 -5.12129,6.27362 -7.76497,9.27816 -3.1649,3.30976 -6.39887,6.49607 -9.69534,9.5558 -4.01546,3.46544 -8.1148,6.74985 -12.28925,9.84663 -5.23312,3.64015 -10.57429,6.99636 -16.00613,10.05881 -7.75632,4.1287 -15.68385,7.68269 -23.74046,10.62765 -7.6498,2.65567 -15.40701,4.79231 -23.23865,6.37457 l -0.002,1.8e-4 -0.004,3.7e-4 c -1.4444,0.35581 -2.8913,0.6935 -4.3397,1.0148 -1.28136,0.21524 -2.56394,0.42134 -3.84861,0.60836 l -0.002,1.9e-4 -0.002,1.8e-4 c -8.43183,1.51512 -16.90732,2.4543 -25.42199,2.93845 -11.31568,0.40705 -22.66935,-0.0377 -34.05853,-1.04349 -40.54075,-4.54336 -81.21679,-16.80377 -122.18781,-24.07378 l -0.002,1.9e-4 c -30.61371,-4.67917 -61.65465,-8.90264 -92.0398,-4.98533 l -0.002,1.8e-4 c -28.172094,4.05871 -55.75632,15.48185 -78.448817,36.37441 -16.373942,14.5748 -30.214155,33.69819 -40.424536,55.75056 l 0.28689,0.24599 C 5.244684,274.50965 19.055781,255.4243 35.393735,240.8822 l 0.002,-0.003 c 22.638895,-20.84319 50.170605,-32.24608 78.300315,-36.29901 30.33969,-3.91143 61.3557,0.30486 91.96519,4.98335 35.24787,6.25446 70.29722,16.20726 105.24891,21.75822 -30.39439,-3.99216 -61.03328,-11.0237 -91.87799,-15.87846 l -0.004,3.8e-4 -0.002,-0.003 c -32.76563,-3.76639 -65.95656,-9.52373 -98.56135,-6.33437 l -0.002,1.9e-4 c -28.17876,3.47215 -55.824683,14.04894 -78.97985,33.60291 -5.19e-4,4.1e-4 -0.0016,-2.1e-4 -0.0023,2.1e-4 -7.72e-4,6.4e-4 -0.0011,0.003 -0.002,0.003 -17.468091,13.86972 -32.567972,32.29044 -44.225422,53.7759 l 0.274513,0.2694 C 9.161329,275.31672 24.230498,256.93185 41.663953,243.0906 l 0.0021,-0.002 0.0023,-2.1e-4 c 23.10372,-19.51194 50.701324,-30.07486 78.839417,-33.54235 32.55728,-3.18473 65.72904,2.56707 98.50262,6.3346 36.53952,5.75107 72.81046,14.56441 108.74762,17.7481 2.6305,0.29558 5.26035,0.55827 7.88998,0.78554 -33.95045,-1.31078 -68.45457,-7.90874 -103.27334,-12.65325 l -0.002,-0.003 -0.004,3.7e-4 c -34.91835,-2.85414 -70.26163,-10.14758 -105.08593,-7.68606 l -0.002,1.9e-4 -0.002,1.7e-4 C 99.091367,216.95855 71.3812,226.69246 47.761946,244.91207 29.199833,258.07695 12.842899,275.79139 -0.261309,296.71003 L 0,296.99997 c 13.079311,-20.87953 29.407718,-38.56219 47.936766,-51.70238 l 0.0023,-2.1e-4 0.002,-0.003 c 23.56832,-18.18032 51.230322,-27.89948 79.376064,-30.78177 34.77568,-2.45807 70.10409,4.82877 105.04165,7.68499 38.10292,5.192 75.8505,12.61627 112.92767,12.88464 3.85713,0.1972 7.71351,0.30416 11.56919,0.31764 -36.22646,2.23267 -73.46292,-3.03113 -111.13676,-7.32448 l -0.004,3.7e-4 -0.004,3.6e-4 c -37.07138,-1.9422 -74.56847,-10.77204 -111.61227,-9.03835 l -0.002,1.9e-4 -0.002,1.7e-4 c -28.19437,2.29942 -55.966193,11.18767 -80.048578,28.07089 -19.65674,12.46039 -37.272819,29.4729 -51.823939,49.82551 l 0.248454,0.30822 c 14.523369,-20.31766 32.10975,-37.29971 51.734466,-49.7386 l 0.0039,-3.6e-4 0.002,-0.003 c 24.033557,-16.84902 51.761317,-25.72538 79.915437,-28.02215 36.99624,-1.73149 74.4847,7.09384 111.58759,9.03767 40.0771,4.56739 79.68257,10.23955 118.12383,6.80112 2.3879,-0.067 4.77552,-0.17203 7.16301,-0.3213 1.96907,-0.10016 3.9352,-0.23537 5.89933,-0.39657 -37.97416,6.63302 -77.61565,3.42967 -117.84125,-0.20627 l -0.004,3.7e-4 -0.004,3.7e-4 c -39.22638,-1.03057 -78.87497,-11.39675 -118.13818,-10.39083 l -0.002,1.8e-4 -0.002,1.9e-4 c -28.20137,1.71298 -56.036459,9.75777 -80.581827,25.30476 -20.751334,11.75607 -39.628256,28.06194 -55.62614,47.84873 l 0.235802,0.3287 c 15.97313,-19.75587 34.81945,-36.03791 55.539865,-47.7754 l 0.0044,-4e-4 0.0014,-0.003 c 24.498946,-15.51758 52.29227,-23.5513 80.45481,-25.26256 39.21474,-1.00466 78.85882,9.35744 118.12445,10.38899 41.94713,3.79148 83.28345,7.11898 122.77584,-0.70472 4.58501,-0.49602 9.15298,-1.15799 13.69899,-1.98076 -39.09151,11.71809 -80.73451,11.33641 -123.13387,8.5621 l -0.004,3.6e-4 -0.004,-0.003 C 231.01425,240.5885 189.2113,228.69085 147.72876,228.96903 l -0.002,1.8e-4 -0.002,1.8e-4 c -28.20615,1.12651 -56.102017,8.3265 -81.108704,22.53509 -21.848284,11.05214 -41.983151,26.65656 -59.429326,45.87949 l 0.220184,0.34129 C 24.826103,278.5317 44.93231,262.95214 66.748444,251.91629 l 0.0044,-4e-4 0.002,-0.003 c 24.964465,-14.18599 52.822716,-21.37647 80.993706,-22.50215 41.43332,-0.27786 83.23395,11.62042 124.66182,11.7395 l -0.006,-0.003 c 43.76665,2.86379 86.75076,3.18512 126.97495,-9.73492 4.46591,-0.90018 8.90871,-1.95511 13.32304,-3.16394 -39.54784,17.29149 -82.77781,20.50004 -126.95673,18.77842 l -0.004,-0.003 -0.004,3.7e-4 c -43.53465,0.7924 -87.4901,-12.64115 -131.19195,-13.0907 l -0.002,1.9e-4 c -28.21537,0.5402 -56.177384,6.89763 -81.648348,19.77254 -22.940508,10.34795 -44.332703,25.24555 -63.2238282,43.90125 l 0.2065678,0.35739 C 28.743183,279.33379 50.109573,264.45578 73.021427,254.1217 l 0.0044,-4.1e-4 0.0013,-0.003 c 25.430098,-12.85427 53.353643,-19.20242 81.533053,-19.74255 43.64915,0.44901 87.60559,13.88224 131.19253,13.09065 45.21611,1.76203 89.46039,-1.63783 129.80028,-20.02223 4.13245,-1.19652 8.23848,-2.52745 12.3144,-3.98917 -39.20831,22.90965 -83.41829,30.37887 -128.78059,29.88641 l -0.004,3.8e-4 -0.002,1.8e-4 c -45.69137,1.70418 -91.80099,-13.26442 -137.72211,-14.44165 l -0.002,1.9e-4 c -28.22234,-0.0461 -56.24577,5.46707 -82.179382,17.00623 -24.036011,9.64413 -46.688936,23.83802 -67.027284,41.92905 l 0.197052,0.36942 C 32.659198,280.13712 55.285894,265.96097 79.29346,256.32881 l 0.0013,-0.003 0.0023,-2.2e-4 c 25.89713,-11.52294 53.88713,-17.02865 82.07644,-16.98259 l -0.004,-0.003 c 45.86922,1.17586 91.98206,16.14898 137.73181,14.44395 45.56396,0.49465 89.98513,-7.0382 129.36103,-30.18603 0.71335,-0.37475 1.42489,-0.75625 2.13514,-1.14178 3.93815,-1.47393 7.84766,-3.06618 11.72267,-4.78323 -1.91935,1.33986 -3.85391,2.63893 -5.80398,3.89543 l -0.002,0.003 -0.002,1.9e-4 c -37.10704,25.92946 -79.97232,37.24694 -124.08436,38.08799 l -0.002,1.9e-4 -0.002,1.8e-4 c -47.84632,2.6152 -96.11022,-13.88907 -144.25059,-15.79394 l -0.002,1.9e-4 c -28.23042,-0.63231 -56.31561,4.03939 -82.71183,14.243 l 0.002,-0.003 c -25.132051,8.94037 -49.044668,22.43079 -70.830674,39.95758 l 0.185599,0.37866 c 21.760735,-17.50584 45.644949,-30.98016 70.748207,-39.9103 l 0.0023,-2.1e-4 0.0023,-2.1e-4 c 26.362248,-10.19047 54.415678,-14.85707 82.612728,-14.22564 48.08789,1.9028 96.35609,18.41298 144.26701,15.79543 44.15027,-0.84175 87.06543,-12.16896 124.22611,-38.13455 l 0.004,-0.003 c 2.57317,-1.65809 5.12005,-3.39042 7.63933,-5.19288 3.32691,-1.51428 6.62927,-3.11423 9.90279,-4.80475 -3.11612,2.77715 -6.28812,5.44228 -9.51463,7.98534 l -0.002,1.9e-4 -0.002,0.003 c -34.89384,28.74184 -76.24633,43.84632 -118.93341,46.02239 l -0.002,1.8e-4 c -50.00166,3.52638 -100.41903,-14.5129 -150.77858,-17.14542 -28.23628,-1.21866 -56.38514,2.60927 -83.24391,11.47753 -26.226682,8.23671 -51.396579,21.02321 -74.629139,37.98493 l 0.171439,0.38888 c 23.207003,-16.9432 48.353454,-29.7194 74.552383,-37.94737 26.828057,-8.85809 54.948497,-12.68035 83.154017,-11.46326 50.30735,2.62979 100.73359,20.67661 150.80603,17.14581 42.7368,-2.1786 84.14346,-17.30168 119.08877,-46.08506 l 0.002,-0.003 c 3.66513,-2.88889 7.25999,-5.93449 10.78225,-9.12399 38.2273,-20.09423 72.57117,-52.12138 98.9272,-93.56255 l -0.25992,-0.29304 c -25.99945,40.88054 -59.78543,72.5921 -97.40426,92.70401 1.25469,-1.15452 2.49906,-2.32865 3.73434,-3.52024 35.29149,-20.50881 66.84129,-51.7424 91.04939,-91.40298 l -0.26326,-0.28679 c -23.84669,39.06844 -54.8325,69.94714 -89.49923,90.43942 1.14685,-1.12439 2.28458,-2.26551 3.41395,-3.42149 32.46619,-20.85391 61.33757,-51.29515 83.47028,-89.24358 l -0.26694,-0.27829 c -21.77353,37.33259 -50.07878,67.39657 -81.91474,88.19338 1.04529,-1.08749 2.0831,-2.18793 3.11278,-3.30222 29.75523,-21.13819 56.05931,-50.81261 76.19064,-87.12532 l -0.2725,-0.27182 c -19.75171,35.62795 -45.45835,64.8547 -74.53547,85.88837 0.93843,-1.0335 1.87066,-2.07765 2.79551,-3.1332 27.12601,-21.36841 50.9495,-50.27078 69.13428,-84.99507 l -0.27864,-0.26338 c -17.78954,33.96952 -40.98419,62.36358 -67.38977,83.56864 0.82389,-0.95818 1.64107,-1.92694 2.45374,-2.90252 24.59633,-21.55498 46.0339,-49.71128 62.33563,-82.91541 l -0.28155,-0.25464 c -15.866,32.31664 -36.60688,59.84705 -60.39063,81.15253 0.69811,-0.85636 1.39231,-1.71813 2.08176,-2.58729 22.13072,-21.69803 41.24969,-49.10728 55.71245,-80.82604 l -0.28682,-0.23931 c -13.96227,30.62139 -32.27338,57.22042 -53.44542,78.5335 0.52398,-0.67812 1.04534,-1.35992 1.56405,-2.04545 19.7412,-21.80622 36.6156,-48.48044 49.28878,-78.76331 l -0.29143,-0.228481 c -12.02933,28.744391 -27.85181,54.234481 -46.31982,75.388261 0.22786,-0.31229 0.4569,-0.62301 0.68366,-0.93675 17.42372,-21.88557 32.12206,-47.84326 43.05185,-76.738685 l -0.29893,-0.212934 c -9.84243,26.020769 -22.74842,49.654019 -37.94934,70.073409 14.44927,-21.38368 26.47081,-45.81073 35.36899,-72.378028 z m -46.20569,87.225017 c -0.26384,0.33616 -0.52793,0.672 -0.79304,1.00628 -0.45594,0.44692 -0.9137,0.89046 -1.37216,1.33251 0.25036,-0.2819 0.50077,-0.56359 0.75015,-0.8471 0.47298,-0.49475 0.94517,-0.99149 1.41505,-1.49169 z m -2.81695,3.52361 c -0.56571,0.69454 -1.13422,1.38441 -1.70555,2.07044 -0.99747,0.874 -2.00116,1.73491 -3.00893,2.58706 0.62781,-0.66074 1.25289,-1.32656 1.87517,-1.99703 0.9513,-0.87735 1.89837,-1.76257 2.83931,-2.66047 z m -3.39073,4.07067 c -0.73736,0.86628 -1.47771,1.7276 -2.22402,2.57969 -1.42008,1.11846 -2.84913,2.21609 -4.28698,3.29293 0.85782,-0.84614 1.71061,-1.70077 2.55891,-2.56467 1.32574,-1.08412 2.64342,-2.18648 3.95209,-3.30795 z m -3.2457,2.01261 c -0.30283,0.31199 -0.60595,0.62349 -0.91005,0.93321 -0.51042,0.41731 -1.02334,0.82906 -1.5362,1.24076 0.25121,-0.23103 0.502,-0.46254 0.7525,-0.69506 0.56646,-0.48893 1.13066,-0.98283 1.69375,-1.47891 z m -0.46981,2.25451 c -0.88597,0.99242 -1.77882,1.97315 -2.67694,2.94546 -1.79938,1.278 -3.61245,2.5223 -5.43647,3.73737 1.05023,-0.96939 2.09413,-1.95132 3.13116,-2.9467 1.67215,-1.21765 3.3334,-2.4627 4.98225,-3.73613 z m -3.08879,1.33263 c -0.69238,0.68224 -1.38739,1.35938 -2.08587,2.02993 -1.23127,0.89644 -2.46716,1.78107 -3.71063,2.64686 0.77281,-0.65257 1.54299,-1.31024 2.30959,-1.97637 1.16856,-0.88555 2.33042,-1.78638 3.48691,-2.70042 z m -0.96233,3.08664 c -0.99877,1.06256 -2.00516,2.11266 -3.01831,3.15014 -2.20237,1.41422 -4.4198,2.78943 -6.6543,4.11459 1.21632,-1.04624 2.42496,-2.10954 3.62507,-3.19002 2.03096,-1.31846 4.04632,-2.67875 6.04754,-4.07471 z m -3.3738,1.07088 c -0.94575,0.88275 -1.89583,1.75657 -2.85221,2.61784 -1.76529,1.14579 -3.5422,2.26077 -5.32883,3.34713 1.09707,-0.85142 2.18764,-1.7178 3.27333,-2.59596 1.64594,-1.09653 3.28212,-2.21938 4.90771,-3.36901 z m -4.08481,2.17131 c -0.32584,0.26693 -0.65161,0.53394 -0.9785,0.79845 -0.60569,0.40356 -1.2125,0.80399 -1.82086,1.2003 0.2526,-0.1856 0.50533,-0.37117 0.75739,-0.55813 0.68265,-0.47482 1.36296,-0.95622 2.04197,-1.44062 z m 3.1122,1.25719 c -1.11302,1.12077 -2.2347,2.22566 -3.36441,3.31588 -2.62486,1.52499 -5.27064,2.98922 -7.93545,4.39446 1.38521,-1.10415 2.76173,-2.22848 4.12761,-3.37621 2.40855,-1.39396 4.80015,-2.83732 7.17225,-4.33413 z m -3.90561,0.98943 c -1.13767,0.99875 -2.28218,1.98283 -3.43403,2.95099 -2.30688,1.33476 -4.62962,2.62111 -6.96775,3.85994 1.37884,-0.97644 2.74972,-1.97365 4.11236,-2.99157 2.11017,-1.23349 4.20783,-2.50368 6.28942,-3.81936 z m -3.7617,1.3831 c -0.88783,0.6866 -1.78046,1.36219 -2.67549,2.03107 -1.54296,0.90198 -3.09272,1.78295 -4.65014,2.64035 0.95181,-0.62205 1.89891,-1.25709 2.84391,-1.89815 1.50164,-0.90199 2.99508,-1.82781 4.48172,-2.77327 z m 3.03353,2.15939 c -1.22872,1.16689 -2.46736,2.31536 -3.71495,3.44567 -3.10359,1.63096 -6.2324,3.18373 -9.38504,4.65576 1.55872,-1.14239 3.10517,-2.3148 4.64158,-3.51146 2.84145,-1.46222 5.66134,-2.99225 8.45841,-4.58997 z m -4.59298,0.9744 c -1.33269,1.09353 -2.67483,2.16526 -4.02539,3.21745 -2.89357,1.48867 -5.80902,2.90627 -8.74487,4.25186 1.66361,-1.06248 3.31828,-2.15179 4.96076,-3.27368 2.62204,-1.33808 5.22535,-2.73765 7.8095,-4.19563 z m -4.1499,1.12496 c -1.25831,0.90405 -2.52366,1.78953 -3.79517,2.65843 -2.37518,1.21204 -4.7642,2.37805 -7.16821,3.49007 1.50336,-0.86459 2.99963,-1.75203 4.48802,-2.66321 2.17175,-1.11814 4.33009,-2.28141 6.47536,-3.48529 z m -5.37029,2.30751 c -0.40987,0.25525 -0.81991,0.50994 -1.23092,0.76167 -0.78085,0.4021 -1.56299,0.80023 -2.34709,1.19112 0.36936,-0.20494 0.73931,-0.40817 1.10788,-0.61584 0.82534,-0.43913 1.6487,-0.88486 2.47013,-1.33695 z m 3.65274,1.20337 c -1.51892,1.1553 -3.04787,2.28674 -4.58803,3.38916 -3.60136,1.63887 -7.23173,3.17531 -10.8894,4.60354 1.98562,-1.12222 3.9585,-2.28664 5.91742,-3.49228 3.21057,-1.41555 6.39836,-2.91466 9.56001,-4.50042 z m -4.91212,1.04481 c -1.58286,1.04112 -3.1752,2.05511 -4.77692,3.04126 -3.24998,1.43287 -6.52355,2.7792 -9.81863,4.03422 2.0066,-0.99056 4.00134,-2.02437 5.98486,-3.09674 2.88971,-1.25424 5.76043,-2.58102 8.61069,-3.97874 z m -5.05251,1.51607 c -1.21247,0.69166 -2.42908,1.36985 -3.65079,2.03084 -2.23057,0.96853 -4.47113,1.89734 -6.72323,2.77894 1.43491,-0.65461 2.86419,-1.33046 4.2886,-2.02531 2.03803,-0.89152 4.06718,-1.81838 6.08542,-2.78447 z m -2.44459,3.1705 c -1.94031,1.14925 -3.89348,2.25886 -5.85896,3.32645 -4.03651,1.51097 -8.10404,2.89183 -12.19841,4.14182 0.65179,-0.30954 1.30255,-0.62381 1.95225,-0.9414 l 0.006,-0.003 c 1.59209,-0.67709 3.17798,-1.38128 4.75752,-2.10961 3.80878,-1.35175 7.59017,-2.82574 11.34177,-4.41374 z m -5.77665,1.2497 c -1.87941,0.94903 -3.76843,1.86316 -5.66719,2.73903 -3.85293,1.36756 -7.73249,2.6165 -11.63609,3.73694 2.55324,-0.88971 5.09366,-1.84201 7.62014,-2.8576 3.24738,-1.11739 6.47646,-2.32186 9.68314,-3.61837 z m -7.89282,2.42091 c -0.60942,0.25326 -1.21959,0.50369 -1.83069,0.74965 -1.2342,0.42513 -2.47068,0.83907 -3.71027,1.23798 0.54019,-0.19111 1.07948,-0.38569 1.61849,-0.58222 1.31062,-0.45385 2.61838,-0.92093 3.92247,-1.40541 z m -2.22354,2.29519 c -0.10985,0.047 -0.21925,0.0959 -0.32921,0.14265 l -0.004,3.8e-4 -0.002,0.003 c -1.54814,0.75684 -3.10293,1.48827 -4.66299,2.19963 -4.10011,1.18724 -8.22577,2.24377 -12.37293,3.16428 1.95818,-0.67212 3.90966,-1.37789 5.85413,-2.11615 3.86162,-1.01072 7.70196,-2.14198 11.51738,-3.39397 z m -8.06013,1.60535 c -0.15394,0.0528 -0.30725,0.1085 -0.46126,0.16083 l -0.004,3.7e-4 -0.002,1.8e-4 c -1.02974,0.41173 -2.06202,0.81082 -3.09575,1.20329 -3.18304,0.83276 -6.38046,1.58285 -9.5902,2.24843 1.1887,-0.34694 2.37512,-0.70746 3.55997,-1.07845 3.21244,-0.75667 6.41108,-1.60346 9.59388,-2.53471 z m -7.42715,2.78475 c -1.88677,0.67048 -3.77969,1.31145 -5.67912,1.92169 -4.14315,0.83489 -8.30559,1.53726 -12.48434,2.10068 2.3783,-0.53094 4.74951,-1.10525 7.11368,-1.72337 3.69899,-0.65542 7.38328,-1.42199 11.04978,-2.299 z m -8.01198,1.02604 c -1.04098,0.29055 -2.08356,0.57022 -3.12742,0.84306 -2.15222,0.38107 -4.30928,0.724 -6.47079,1.02883 1.29831,-0.2605 2.59536,-0.5323 3.89059,-0.81945 1.90649,-0.32012 3.80917,-0.67046 5.70762,-1.05244 z m -41.08143,4.8721 c 2.08385,-0.0668 4.16535,-0.16029 6.24469,-0.28003 2.57917,-0.0948 5.15641,-0.2349 7.7318,-0.4208 -2.01565,0.23286 -4.03469,0.44051 -6.05697,0.62135 -2.63941,0.0738 -5.27934,0.10019 -7.91952,0.0795 z m 32.68108,-2.72353 c -2.25,0.52373 -4.50656,1.00836 -6.76908,1.45678 -3.52631,0.38155 -7.06217,0.66899 -10.60572,0.85342 2.98776,-0.36239 5.96844,-0.78346 8.94116,-1.26958 2.81758,-0.28355 5.62964,-0.62742 8.43364,-1.04062 z"
       id="path4454"
       inkscape:connector-curvature="0" />
    <path
       sodipodi:type="spiral"
       style="fill:none;fill-rule:evenodd;stroke:#f6f6f6;stroke-width:0.76499999;stroke-miterlimit:4;stroke-dasharray:none;stroke-opacity:0.53556483"
       id="path4579"
       sodipodi:cx="415.87134"
       sodipodi:cy="67.682724"
       sodipodi:expansion="3.01"
       sodipodi:revolution="4.3001547"
       sodipodi:radius="20.274496"
       sodipodi:argument="-18.402037"
       sodipodi:t0="0.65100473"
       d="m 419.70056,63.638034 c 2.97407,1.985086 3.35055,6.165487 1.40322,8.998394 -2.5836,3.75853 -7.9163,4.213091 -11.51206,1.679257 -4.6702,-3.290957 -5.21208,-9.972231 -1.98426,-14.456619 4.11625,-5.718687 12.35801,-6.357533 17.8664,-2.319176 6.91361,5.068568 7.65951,15.098377 2.68495,21.775747 -6.15702,8.264585 -18.21807,9.128074 -26.21903,3.082549 -0.025,-0.01889 -0.05,-0.03784 -0.0749,-0.05685" />
    <use
       id="use4623"
       inkscape:spray-origin="#path4579"
       xlink:href="#path4579"
       transform="matrix(-0.52097396,-0.79399911,0.79399911,-0.52097396,209.11879,489.44885)"
       x="0"
       y="0"
       width="100%"
       height="100%" />
    <use
       id="use4625"
       inkscape:spray-origin="#path4579"
       xlink:href="#path4579"
       transform="matrix(-0.83530143,-0.28125765,0.28125765,-0.83530143,684.61476,354.41635)"
       x="0"
       y="0"
       width="100%"
       height="100%" />
    <use
       id="use4627"
       inkscape:spray-origin="#path4579"
       xlink:href="#path4579"
       transform="matrix(0.35758174,-0.09953797,0.09953797,0.35758174,2.8630988,282.44197)"
       x="0"
       y="0"
       width="100%"
       height="100%" />
    <use
       id="use4629"
       inkscape:spray-origin="#path4579"
       xlink:href="#path4579"
       transform="matrix(-0.22411584,0.77192795,-0.77192795,-0.22411584,317.66602,-237.238)"
       x="0"
       y="0"
       width="100%"
       height="100%" />
    <use
       id="use4631"
       inkscape:spray-origin="#path4579"
       xlink:href="#path4579"
       transform="matrix(0.57558601,0.33973236,-0.33973236,0.57558601,27.630689,-38.133114)"
       x="0"
       y="0"
       width="100%"
       height="100%" />
    <text
       xml:space="preserve"
       style="font-style:normal;font-weight:normal;font-size:10.58333302px;line-height:1.25;font-family:sans-serif;letter-spacing:0px;word-spacing:0px;fill:#000000;fill-opacity:1;stroke:none;stroke-width:0.26458332"
       x="427.63123"
       y="282.3118"
       id="text6598"><tspan
         sodipodi:role="line"
         id="tspan6596"
         x="427.63123"
         y="282.3118"
         style="font-style:normal;font-variant:normal;font-weight:normal;font-stretch:normal;font-size:14.11111069px;font-family:'Liberation Sans Narrow';-inkscape-font-specification:'Liberation Sans Narrow';fill:#ffffff;fill-opacity:0.50196078;stroke-width:0.26458332">LH4tography</tspan></text>
  </g>
</svg>
