<?xml version="1.0" encoding="UTF-8" standalone="no"?>
<svg
   xmlns:dc="http://purl.org/dc/elements/1.1/"
   xmlns:cc="http://creativecommons.org/ns#"
   xmlns:rdf="http://www.w3.org/1999/02/22-rdf-syntax-ns#"
   xmlns:svg="http://www.w3.org/2000/svg"
   xmlns="http://www.w3.org/2000/svg"
   xmlns:sodipodi="http://sodipodi.sourceforge.net/DTD/sodipodi-0.dtd"
   xmlns:inkscape="http://www.inkscape.org/namespaces/inkscape"
   width="210mm"
   height="297mm"
   viewBox="0 0 210 297"
   version="1.1"
   id="svg8"
   inkscape:version="1.0 (4035a4fb49, 2020-05-01)"
   sodipodi:docname="Kakadu.svg">
  <defs
     id="defs2" />
  <sodipodi:namedview
     id="base"
     pagecolor="#ffffff"
     bordercolor="#666666"
     borderopacity="1.0"
     inkscape:pageopacity="0.0"
     inkscape:pageshadow="2"
     inkscape:zoom="0.49497475"
     inkscape:cx="298.60539"
     inkscape:cy="495.87684"
     inkscape:document-units="mm"
     inkscape:current-layer="layer1"
     inkscape:document-rotation="0"
     showgrid="false"
     inkscape:snap-midpoints="false"
     inkscape:object-paths="true"
     inkscape:snap-global="false"
     inkscape:window-width="1920"
     inkscape:window-height="995"
     inkscape:window-x="0"
     inkscape:window-y="48"
     inkscape:window-maximized="1" />
  <metadata
     id="metadata5">
    <rdf:RDF>
      <cc:Work
         rdf:about="">
        <dc:format>image/svg+xml</dc:format>
        <dc:type
           rdf:resource="http://purl.org/dc/dcmitype/StillImage" />
        <dc:title />
      </cc:Work>
    </rdf:RDF>
  </metadata>
  <g
     inkscape:label="Ebene 1"
     inkscape:groupmode="layer"
     id="layer1">
    <path
       style="fill:#f5f87c;fill-opacity:1;stroke:#000000;stroke-width:0.618941px;stroke-linecap:butt;stroke-linejoin:miter;stroke-opacity:1"
       d="m 61.302186,82.58397 c 0,0 9.283095,-25.211089 25.731402,-28.35458 16.448292,-3.143498 22.418112,0.845022 22.418112,0.845022 0,0 -17.192685,5.231764 -22.277069,10.773935 -5.084385,5.542173 -12.685499,16.098208 -12.685499,16.098208"
       id="path851" />
    <path
       sodipodi:nodetypes="cscsc"
       style="fill:#f5f87c;fill-opacity:1;stroke:#000000;stroke-width:0.618941px;stroke-linecap:butt;stroke-linejoin:miter;stroke-opacity:1"
       d="m 71.677161,81.574047 c 0,0 4.145671,-8.868514 20.866699,-14.358383 14.7147,-4.831136 23.34559,3.039921 23.34559,3.039921 0,0 -9.6521,-1.140995 -20.024611,4.129698 -10.48422,5.327445 -14.190572,14.732186 -14.190572,14.732186"
       id="path851-3-6" />
    <path
       style="fill:none;stroke:#000000;stroke-width:0.618941px;stroke-linecap:butt;stroke-linejoin:miter;stroke-opacity:1"
       d="m 129.08324,241.97807 -18.86856,-41.7098"
       id="path843" />
    <path
       id="path851-3"
       d="m 48.291716,86.794342 c 0,0 -3.599561,-10.750787 9.345069,-22.674207 12.317084,-11.345386 21.944074,-13.767427 21.944074,-13.767427 0,0 -9.985026,9.438048 -13.780003,15.931484 -4.343829,7.432558 -1.270282,15.743062 -1.270282,15.743062"
       style="fill:#f5f87c;fill-opacity:1;stroke:#000000;stroke-width:0.618941px;stroke-linecap:butt;stroke-linejoin:miter;stroke-opacity:1"
       sodipodi:nodetypes="cscsc" />
    <path
       style="fill:#ffffff;fill-opacity:1;stroke:#070707;stroke-width:0.618941px;stroke-linecap:butt;stroke-linejoin:miter;stroke-opacity:1"
       d="m 12.424924,116.68884 c 0,0 22.448939,-32.614361 55.843387,-35.065189 33.394439,-2.450815 -9.932107,50.418369 35.952179,55.222499 45.8843,4.80412 85.20718,30.87816 93.51606,58.00181 8.30887,27.12365 -97.48523,23.06156 -117.58523,3.2329 C 60.051309,178.25219 60.147184,167.85022 54.715743,147.34076 49.284302,126.8313 12.424924,116.68884 12.424924,116.68884 Z"
       id="path833"
       sodipodi:nodetypes="csssssc" />
    <circle
       style="fill:#000000;stroke:none;stroke-width:0.82505;stroke-linecap:square;stroke-linejoin:round"
       id="path835"
       cx="58.10228"
       cy="99.287598"
       r="3.4600003" />
    <path
       style="fill:none;stroke:#000000;stroke-width:0.618941px;stroke-linecap:butt;stroke-linejoin:miter;stroke-opacity:1"
       d="M 86.280985,249.43816 110.21468,200.26827"
       id="path841" />
    <path
       style="fill:none;stroke:#000000;stroke-width:0.618941px;stroke-linecap:butt;stroke-linejoin:miter;stroke-opacity:1"
       d="m 91.491383,159.63516 c 0,0 -3.281613,19.14435 15.537757,30.06396 18.81936,10.9196 79.11373,19.72852 79.11373,19.72852"
       id="path845"
       sodipodi:nodetypes="csc" />
    <path
       style="fill:none;stroke:#000000;stroke-width:0.618941px;stroke-linecap:butt;stroke-linejoin:miter;stroke-opacity:1"
       d="m 36.798993,93.200117 c 0,0 5.446717,9.461703 4.975072,16.004153 -0.471652,6.54243 -8.245571,16.17881 -8.245571,16.17881"
       id="path847" />
    <path
       style="fill:none;stroke:#000000;stroke-width:0.618941px;stroke-linecap:butt;stroke-linejoin:miter;stroke-opacity:1"
       d="m 12.424924,116.68884 c 0,0 5.233223,2.21209 15.052698,2.21209 10.51143,0 12.754841,-4.285 12.754841,-4.285"
       id="path849"
       sodipodi:nodetypes="csc" />
  </g>
</svg>
