<?xml version="1.0" encoding="UTF-8" standalone="no"?>
<!-- Created with Inkscape (http://www.inkscape.org/) -->

<svg
   xmlns:dc="http://purl.org/dc/elements/1.1/"
   xmlns:cc="http://creativecommons.org/ns#"
   xmlns:rdf="http://www.w3.org/1999/02/22-rdf-syntax-ns#"
   xmlns:svg="http://www.w3.org/2000/svg"
   xmlns="http://www.w3.org/2000/svg"
   xmlns:xlink="http://www.w3.org/1999/xlink"
   xmlns:sodipodi="http://sodipodi.sourceforge.net/DTD/sodipodi-0.dtd"
   xmlns:inkscape="http://www.inkscape.org/namespaces/inkscape"
   width="210mm"
   height="297mm"
   viewBox="0 0 210 297"
   version="1.1"
   id="svg8"
   inkscape:version="0.92.4 5da689c313, 2019-01-14"
   sodipodi:docname="Logo Apfelschorle.svg">
  <defs
     id="defs2">
    <linearGradient
       inkscape:collect="always"
       id="linearGradient4552">
      <stop
         style="stop-color:#e17745;stop-opacity:1"
         offset="0"
         id="stop4548" />
      <stop
         style="stop-color:#90cf5c;stop-opacity:1"
         offset="1"
         id="stop4550" />
    </linearGradient>
    <linearGradient
       inkscape:collect="always"
       xlink:href="#linearGradient4552"
       id="linearGradient4554"
       x1="86.838707"
       y1="112.8159"
       x2="140.89949"
       y2="96.090446"
       gradientUnits="userSpaceOnUse" />
    <linearGradient
       gradientTransform="translate(8e-6,5.31e-5)"
       inkscape:collect="always"
       xlink:href="#linearGradient4552"
       id="linearGradient4715-5"
       x1="49.506786"
       y1="166.85062"
       x2="170.10492"
       y2="166.85062"
       gradientUnits="userSpaceOnUse" />
    <clipPath
       clipPathUnits="userSpaceOnUse"
       id="clipPath4772">
      <path
         style="fill:#d5e459;fill-opacity:0.66795367;stroke:#000000;stroke-width:0.44499999;stroke-linecap:round;stroke-linejoin:round;stroke-miterlimit:4;stroke-dasharray:none;stroke-opacity:1;paint-order:fill markers stroke"
         d="m 40.357698,156.68349 c 0,0 20.089759,5.74629 32.874153,5.74629 15.913775,0 17.828371,-5.06927 38.068429,-6.19429 10.89427,-0.60554 32.58644,3.65271 45.32108,3.79989 14.00378,0.16185 23.78558,-3.35189 23.78558,-3.35189 v 66.28284 H 40.357698 Z"
         id="path4774"
         inkscape:connector-curvature="0"
         sodipodi:nodetypes="cssscccc" />
    </clipPath>
  </defs>
  <sodipodi:namedview
     id="base"
     pagecolor="#293034"
     bordercolor="#666666"
     borderopacity="1.0"
     inkscape:pageopacity="1"
     inkscape:pageshadow="2"
     inkscape:zoom="1.0104048"
     inkscape:cx="392.53701"
     inkscape:cy="614.15711"
     inkscape:document-units="mm"
     inkscape:current-layer="layer1"
     showgrid="false"
     inkscape:window-width="1920"
     inkscape:window-height="1006"
     inkscape:window-x="0"
     inkscape:window-y="0"
     inkscape:window-maximized="1" />
  <metadata
     id="metadata5">
    <rdf:RDF>
      <cc:Work
         rdf:about="">
        <dc:format>image/svg+xml</dc:format>
        <dc:type
           rdf:resource="http://purl.org/dc/dcmitype/StillImage" />
        <dc:title></dc:title>
      </cc:Work>
    </rdf:RDF>
  </metadata>
  <g
     inkscape:label="Ebene 1"
     inkscape:groupmode="layer"
     id="layer1">
    <path
       style="fill:none;fill-opacity:1;stroke:#ffffff;stroke-width:4.601;stroke-linecap:round;stroke-linejoin:round;stroke-miterlimit:4;stroke-dasharray:none;stroke-opacity:1"
       d="M 74.374133,74.754509 98.217828,61.810787 123.76465,167.4043"
       id="path4621"
       inkscape:connector-curvature="0" />
    <path
       style="fill:url(#linearGradient4715-5);fill-opacity:1;stroke:none;stroke-width:3.54523873;stroke-linecap:round;stroke-linejoin:round;stroke-miterlimit:4;stroke-dasharray:none;stroke-opacity:0.24324323;paint-order:fill markers stroke"
       d="m 168.3323,167.20666 c 0,23.76848 -14.64685,44.17233 -35.54757,52.95673 -7.0547,2.96502 -15.0299,-0.0844 -22.80857,-0.0773 -7.77865,0.007 -15.956386,3.0714 -22.960926,0.15608 -21.00097,-8.74073 -35.735827,-29.19568 -35.735827,-53.03545 0,-28.28306 17.232207,-49.59466 44.569407,-54.44084 3.39081,-0.6011 11.067156,0.40323 14.634006,0.40323 3.63436,0 10.70447,-1.48136 14.15554,-0.8578 27.24203,4.9222 43.69394,26.67877 43.69394,54.89541 z"
       id="path4518-9"
       inkscape:connector-curvature="0"
       sodipodi:nodetypes="cszssssssc"
       clip-path="url(#clipPath4772)" />
    <path
       style="fill:none;fill-opacity:1;stroke:#ffffff;stroke-width:0.445;stroke-linecap:round;stroke-linejoin:round;stroke-miterlimit:4;stroke-dasharray:none;stroke-opacity:1;paint-order:fill markers stroke"
       d="m 168.3323,167.2066 c 0,23.76848 -14.64685,44.17233 -35.54757,52.95673 -7.0547,2.96502 -15.0299,-0.0844 -22.80857,-0.0773 -7.77865,0.007 -15.956385,3.0714 -22.960926,0.15608 -21.000974,-8.74073 -35.73583,-29.19568 -35.73583,-53.03545 0,-28.28306 17.232211,-49.59465 44.569404,-54.44083 3.390813,-0.6011 11.067162,0.40323 14.634012,0.40323 3.63436,0 10.70447,-1.48136 14.15554,-0.8578 27.24203,4.9222 43.69394,26.67876 43.69394,54.8954 z"
       id="path4518"
       inkscape:connector-curvature="0"
       sodipodi:nodetypes="cszssssssc" />
  </g>
</svg>
